<svg xmlns="http://www.w3.org/2000/svg" xmlns:xlink="http://www.w3.org/1999/xlink" version="1.1" x="0px" y="0px" viewBox="0 0 100 125" fill="#ffffff" preserveAspectRatio="none" xml:space="preserve"><g><path d="M50.011,93.854c-1.104,0-2-0.896-2-2V73.066c0-1.104,0.896-2,2-2s2,0.896,2,2v18.787   C52.011,92.958,51.115,93.854,50.011,93.854z"/></g><g><path d="M79.258,85.485l-7.217-0.302c-0.792-0.034-7.889-0.46-14.453-4.677c-3.367-2.162-5.889-4.889-7.578-7.095   c-1.69,2.206-4.212,4.934-7.579,7.095c-6.562,4.215-13.658,4.642-14.446,4.677l-7.226,0.302l3.262-6.45   c0.105-0.211,2.22-4.391,6.48-8.292c-8.87-2.27-14.997-7.945-15.061-8.004l-5.294-4.881l6.857-2.257   c0.162-0.054,3.388-1.099,7.973-1.444c-5.066-6.665-6.91-13.492-6.999-13.827l-1.807-6.997l6.986,1.822   c0.381,0.098,9.112,2.409,16.521,9.196c-0.1-1.255-0.149-2.497-0.149-3.735c0-14.201,6.612-25.634,6.894-26.114l3.655-6.228   l3.661,6.227c0.281,0.477,6.895,11.871,6.895,26.116c0,1.183-0.047,2.383-0.14,3.597c7.386-6.686,15.989-8.96,16.372-9.059   l6.984-1.822l-1.813,6.99c-0.016,0.063-1.783,7-6.99,13.834c4.59,0.346,7.81,1.392,7.97,1.444l6.852,2.256l-5.296,4.892   c-0.267,0.246-6.338,5.765-15.05,7.993c4.246,3.898,6.37,8.081,6.48,8.301L79.258,85.485z M17.862,59.53l0.303,0.279   c0.071,0.066,5.917,5.459,14.263,7.28c0.947,0.205,1.948,0.363,3.056,0.483l5.583,0.605l-4.709,3.06   c-5.8,3.769-8.733,9.534-8.762,9.592l-0.189,0.374l0.406-0.017c0.266-0.012,6.679-0.335,12.456-4.046   c4.132-2.653,6.816-6.332,8.049-8.289l1.693-2.689l1.691,2.689c1.231,1.957,3.913,5.635,8.046,8.289   c5.78,3.713,12.192,4.034,12.463,4.046l0.401,0.017l-0.185-0.364c-0.032-0.065-2.972-5.838-8.764-9.609l-4.74-3.087l5.628-0.578   c1.06-0.109,2.084-0.27,3.043-0.477c8.234-1.796,14.022-7.057,14.265-7.28l0.301-0.277L81.765,59.4   c-0.041-0.014-4.168-1.354-9.611-1.354c-0.229,0-0.451,0.017-0.674,0.031c-0.227,0.015-0.454,0.029-0.686,0.036l-4.907,0.141   l3.413-3.53c6.656-6.885,8.84-15.303,8.861-15.387l0.107-0.415l-0.398,0.104c-0.095,0.024-8.952,2.365-15.816,9.222   c-0.936,0.939-1.843,1.995-2.853,3.318l-5.296,6.941l1.746-8.555c0.652-3.191,0.982-6.333,0.982-9.336   c0-13.167-6.083-23.647-6.342-24.087l-0.21-0.357l-0.209,0.355c-0.259,0.441-6.343,10.963-6.343,24.09   c0,3.106,0.342,6.251,1.045,9.615l1.859,8.889l-5.421-7.285c-1.074-1.444-2.042-2.584-3.047-3.588   c-6.854-6.85-15.723-9.197-15.812-9.22l-0.408-0.106l0.103,0.4c0.09,0.34,2.332,8.641,8.871,15.405l3.413,3.529l-4.908-0.141   c-0.229-0.007-0.455-0.021-0.68-0.036c-0.224-0.015-0.447-0.031-0.678-0.031c-5.432,0-9.57,1.341-9.611,1.354L17.862,59.53z"/></g><text x="0" y="115" fill="#ffffff" font-size="5px" font-weight="bold" font-family="'Helvetica Neue', Helvetica, Arial-Unicode, Arial, Sans-serif"></text></svg>
